<svg xmlns="http://www.w3.org/2000/svg" xmlns:xlink="http://www.w3.org/1999/xlink" width="2200" zoomAndPan="magnify" viewBox="0 0 1650 1100.999951" height="1468" preserveAspectRatio="xMidYMid meet" version="1.0"><defs><g/><clipPath id="id1"><path d="M 204 460.027344 L 716 460.027344 L 716 680.527344 L 204 680.527344 Z M 204 460.027344 " clip-rule="nonzero"/></clipPath></defs><rect x="-165" width="1980" fill="#ffffff" y="-110.099995" height="1321.199941" fill-opacity="1"/><rect x="-165" width="1980" fill="#ffffff" y="-110.099995" height="1321.199941" fill-opacity="1"/><rect x="-165" width="1980" fill="#ffffff" y="-110.099995" height="1321.199941" fill-opacity="1"/><rect x="-165" width="1980" fill="#ffffff" y="-110.099995" height="1321.199941" fill-opacity="1"/><path fill="#d1140e" d="M 338.1875 656.523438 C 334.105469 656.523438 330.785156 653.199219 330.785156 649.113281 C 330.785156 645.027344 334.105469 641.703125 338.1875 641.703125 C 342.265625 641.703125 345.589844 645.027344 345.589844 649.113281 C 345.589844 653.199219 342.265625 656.523438 338.1875 656.523438 Z M 338.1875 633.570312 C 329.625 633.570312 322.660156 640.542969 322.660156 649.113281 C 322.660156 657.679688 329.625 664.65625 338.1875 664.65625 C 346.746094 664.65625 353.714844 657.679688 353.714844 649.113281 C 353.714844 640.542969 346.746094 633.570312 338.1875 633.570312 " fill-opacity="1" fill-rule="nonzero"/><path fill="#d1140e" d="M 581.960938 656.523438 C 577.882812 656.523438 574.558594 653.199219 574.558594 649.113281 C 574.558594 645.027344 577.882812 641.703125 581.960938 641.703125 C 586.042969 641.703125 589.363281 645.027344 589.363281 649.113281 C 589.363281 653.199219 586.042969 656.523438 581.960938 656.523438 Z M 581.960938 633.570312 C 573.398438 633.570312 566.433594 640.542969 566.433594 649.113281 C 566.433594 657.679688 573.398438 664.65625 581.960938 664.65625 C 590.519531 664.65625 597.488281 657.679688 597.488281 649.113281 C 597.488281 640.542969 590.519531 633.570312 581.960938 633.570312 " fill-opacity="1" fill-rule="nonzero"/><g clip-path="url(#id1)"><path fill="#d1140e" d="M 707.871094 594.324219 L 707.871094 626.0625 L 701.019531 626.0625 C 697.003906 626.0625 693.738281 622.796875 693.738281 618.777344 L 693.738281 612.074219 C 693.738281 603.429688 699.785156 596.171875 707.871094 594.324219 Z M 691.691406 655.894531 L 612.539062 655.894531 C 613.023438 653.710938 613.285156 651.441406 613.285156 649.113281 C 613.285156 631.820312 599.234375 617.757812 581.960938 617.757812 C 564.691406 617.757812 550.640625 631.820312 550.640625 649.113281 C 550.640625 651.441406 550.902344 653.710938 551.386719 655.894531 L 368.761719 655.894531 C 369.246094 653.710938 369.507812 651.441406 369.507812 649.113281 C 369.507812 631.820312 355.457031 617.757812 338.1875 617.757812 C 320.914062 617.757812 306.863281 631.820312 306.863281 649.113281 C 306.863281 651.441406 307.125 653.710938 307.609375 655.894531 L 236.574219 655.894531 C 221.691406 655.894531 213.433594 647.019531 212.390625 637.652344 C 229.503906 636.328125 238.105469 629.835938 239.359375 617.40625 C 239.65625 614.46875 238.605469 611.597656 236.480469 609.539062 C 234.375 607.5 231.507812 606.554688 228.625 606.9375 C 222.203125 607.808594 216.625 609.074219 212.726562 610.09375 C 212.832031 608.742188 212.960938 607.253906 213.09375 605.683594 C 233.199219 601.75 235.019531 586.15625 237.691406 563.121094 L 237.984375 560.570312 C 239.015625 551.742188 240.269531 543.402344 241.375 536.046875 C 244.777344 513.378906 247.027344 498.410156 240.382812 490.6875 C 238.769531 488.804688 236.699219 487.492188 234.222656 486.726562 C 236.71875 480.675781 238.824219 477.761719 240.25 476.375 C 242.804688 473.890625 250.257812 468.117188 264.234375 468.117188 L 684.433594 468.117188 C 705.082031 468.117188 707.609375 484.035156 707.875 486.464844 L 707.875 586.046875 C 695.28125 588.003906 685.617188 598.929688 685.617188 612.074219 L 685.617188 618.777344 C 685.617188 627.277344 692.527344 634.195312 701.019531 634.195312 L 707.875 634.195312 L 707.875 639.699219 C 707.875 644.570312 706.296875 655.894531 691.691406 655.894531 Z M 581.960938 672.335938 C 569.171875 672.335938 558.765625 661.914062 558.765625 649.113281 C 558.765625 636.304688 569.171875 625.890625 581.960938 625.890625 C 594.753906 625.890625 605.160156 636.304688 605.160156 649.113281 C 605.160156 661.914062 594.753906 672.335938 581.960938 672.335938 Z M 338.1875 672.335938 C 325.394531 672.335938 314.988281 661.914062 314.988281 649.113281 C 314.988281 636.304688 325.394531 625.890625 338.1875 625.890625 C 350.976562 625.890625 361.382812 636.304688 361.382812 649.113281 C 361.382812 661.914062 350.976562 672.335938 338.1875 672.335938 Z M 231.449219 494.386719 C 232.964844 494.769531 233.75 495.4375 234.226562 495.992188 C 238.441406 500.886719 236.074219 516.621094 233.339844 534.835938 C 232.222656 542.253906 230.960938 550.664062 229.914062 559.625 L 229.617188 562.183594 C 226.984375 584.925781 225.332031 594 213.890625 597.171875 C 215.824219 577.542969 221.726562 524.464844 231.449219 494.386719 Z M 212.273438 618.648438 C 215.726562 617.664062 222.144531 616.019531 229.707031 615 C 230.269531 614.921875 230.652344 615.207031 230.832031 615.386719 C 231.027344 615.570312 231.339844 615.976562 231.28125 616.589844 C 230.867188 620.664062 230.117188 628.003906 212.273438 629.507812 Z M 715.980469 485.925781 C 715.234375 476.953125 707.671875 459.984375 684.433594 459.984375 L 264.234375 459.984375 C 247.285156 459.984375 237.855469 467.363281 234.585938 470.542969 C 231.082031 473.964844 227.878906 479.886719 224.804688 488.65625 C 213.003906 522.242188 206.476562 588.808594 205.285156 601.808594 C 204.761719 607.535156 204.363281 612.566406 204.226562 615.273438 C 204.226562 615.300781 204.222656 615.328125 204.222656 615.359375 C 204.222656 615.363281 204.222656 615.367188 204.222656 615.367188 C 204.175781 616.144531 204.148438 616.707031 204.148438 617.042969 L 204.148438 635.632812 C 204.148438 649.398438 215.515625 664.027344 236.574219 664.027344 L 310.640625 664.027344 C 315.949219 673.8125 326.300781 680.46875 338.1875 680.46875 C 350.066406 680.46875 360.421875 673.8125 365.730469 664.027344 L 554.417969 664.027344 C 559.726562 673.8125 570.078125 680.46875 581.960938 680.46875 C 593.84375 680.46875 604.199219 673.8125 609.507812 664.027344 L 691.691406 664.027344 C 709.632812 664.027344 716 650.921875 716 639.699219 L 716 486.265625 C 716 486.15625 715.992188 486.039062 715.980469 485.925781 " fill-opacity="1" fill-rule="nonzero"/></g><path fill="#d1140e" d="M 340.234375 539.804688 C 340.234375 588.082031 292.46875 601.902344 271.933594 605.605469 C 270.3125 605.898438 269.175781 605.183594 268.632812 604.730469 C 267.707031 603.953125 267.171875 602.808594 267.171875 601.59375 L 267.171875 496.757812 C 267.171875 494.519531 268.996094 492.691406 271.238281 492.691406 L 336.171875 492.691406 C 338.414062 492.691406 340.234375 494.519531 340.234375 496.757812 Z M 336.171875 484.558594 L 271.238281 484.558594 C 264.515625 484.558594 259.046875 490.03125 259.046875 496.757812 L 259.046875 601.59375 C 259.046875 605.226562 260.644531 608.644531 263.421875 610.96875 C 265.632812 612.816406 268.382812 613.804688 271.207031 613.804688 C 271.925781 613.804688 272.648438 613.742188 273.371094 613.609375 C 295.917969 609.542969 348.359375 594.214844 348.359375 539.804688 L 348.359375 496.757812 C 348.359375 490.03125 342.890625 484.558594 336.171875 484.558594 " fill-opacity="1" fill-rule="nonzero"/><path fill="#d1140e" d="M 684.394531 566.746094 C 684.394531 568.992188 682.570312 570.816406 680.328125 570.816406 L 612.585938 570.816406 L 612.585938 494.574219 L 680.328125 494.574219 C 682.570312 494.574219 684.394531 496.394531 684.394531 498.640625 Z M 372.78125 566.746094 L 372.78125 498.640625 C 372.78125 496.394531 374.609375 494.574219 376.847656 494.574219 L 444.59375 494.574219 L 444.59375 570.816406 L 376.847656 570.816406 C 374.609375 570.816406 372.78125 568.992188 372.78125 566.746094 Z M 524.527344 570.816406 L 452.71875 570.816406 L 452.71875 494.574219 L 524.527344 494.574219 Z M 532.652344 494.574219 L 604.460938 494.574219 L 604.460938 570.816406 L 532.652344 570.816406 Z M 692.519531 566.746094 L 692.519531 498.640625 C 692.519531 491.914062 687.050781 486.441406 680.328125 486.441406 L 376.847656 486.441406 C 370.128906 486.441406 364.660156 491.914062 364.660156 498.640625 L 364.660156 566.746094 C 364.660156 573.480469 370.128906 578.949219 376.847656 578.949219 L 680.328125 578.949219 C 687.050781 578.949219 692.519531 573.480469 692.519531 566.746094 " fill-opacity="1" fill-rule="nonzero"/><g fill="#1b7895" fill-opacity="1"><g transform="translate(800.747486, 558.466708)"><g><path d="M 112.707031 0 L 96.320312 -84.40625 L 74.226562 -84.40625 L 56.726562 -25.199219 L 39.097656 -84.40625 L 17.003906 -84.40625 L 0.621094 0 L 21.101562 0 L 31.03125 -58.214844 L 47.539062 0 L 65.785156 0 L 82.292969 -58.214844 L 92.226562 0 Z M 112.707031 0 "/></g></g></g><g fill="#1b7895" fill-opacity="1"><g transform="translate(938.899747, 558.466708)"><g><path d="M 32.148438 0 L 50.765625 0 L 50.765625 -40.339844 L 81.921875 -84.40625 L 59.703125 -84.40625 L 41.457031 -55.234375 L 23.210938 -84.40625 L 0.992188 -84.40625 L 32.148438 -40.339844 Z M 32.148438 0 "/></g></g></g><g fill="#1b7895" fill-opacity="1"><g transform="translate(1046.641399, 558.466708)"><g/></g></g><g fill="#1b7895" fill-opacity="1"><g transform="translate(1102.498838, 558.466708)"><g><path d="M 48.160156 -24.699219 C 48.160156 -19.117188 43.445312 -14.523438 37.859375 -14.523438 L 26.066406 -14.523438 L 26.066406 -34.878906 L 37.859375 -34.878906 C 43.445312 -34.878906 48.160156 -30.164062 48.160156 -24.699219 Z M 42.328125 -59.953125 C 42.328125 -54.613281 37.859375 -50.148438 32.519531 -50.148438 L 26.066406 -50.148438 L 26.066406 -69.757812 L 32.519531 -69.757812 C 37.859375 -69.757812 42.328125 -65.414062 42.328125 -59.953125 Z M 67.152344 -24.203125 C 67.152344 -35.625 59.457031 -43.195312 50.023438 -45.429688 C 56.351562 -48.285156 60.078125 -54.738281 60.078125 -63.304688 C 60.078125 -74.847656 50.890625 -84.40625 36.492188 -84.40625 L 7.449219 -84.40625 L 7.449219 0 L 41.582031 0 C 57.71875 0 67.152344 -9.683594 67.152344 -24.203125 Z M 67.152344 -24.203125 "/></g></g></g><g fill="#1b7895" fill-opacity="1"><g transform="translate(1195.717893, 558.466708)"><g><path d="M 56.726562 -84.40625 L 56.726562 -35.625 C 56.726562 -23.957031 53.25 -17.378906 40.464844 -17.378906 C 27.804688 -17.378906 24.203125 -23.957031 24.203125 -35.625 L 24.203125 -84.40625 L 5.585938 -84.40625 L 5.585938 -32.894531 C 5.585938 -10.425781 18.496094 1.242188 40.464844 1.242188 C 62.433594 1.242188 75.34375 -10.425781 75.34375 -32.894531 L 75.34375 -84.40625 Z M 56.726562 -84.40625 "/></g></g></g><g fill="#1b7895" fill-opacity="1"><g transform="translate(1301.473515, 558.466708)"><g><path d="M 40.214844 -13.15625 C 31.03125 -13.15625 23.085938 -17.75 22.589844 -27.804688 L 3.722656 -27.804688 C 3.847656 -7.199219 20.851562 1.984375 39.472656 1.984375 C 56.726562 1.984375 74.476562 -5.335938 74.476562 -25.199219 C 74.476562 -57.347656 25.695312 -46.546875 25.695312 -61.566406 C 25.695312 -67.894531 33.015625 -70.378906 38.230469 -70.378906 C 47.539062 -70.378906 52.628906 -67.523438 53.621094 -58.710938 L 71.621094 -58.710938 C 71 -77.949219 55.359375 -85.644531 37.980469 -85.644531 C 22.589844 -85.644531 6.453125 -77.453125 6.453125 -60.078125 C 6.453125 -28.921875 55.234375 -39.472656 55.234375 -23.085938 C 55.234375 -15.515625 46.050781 -13.15625 40.214844 -13.15625 Z M 40.214844 -13.15625 "/></g></g></g><g fill="#1b7895" fill-opacity="1"><g transform="translate(767.83655, 682.365689)"><g><path d="M 1.378906 -42.546875 L 12.757812 -42.546875 L 12.757812 -0.136719 L 17.582031 -0.136719 L 17.582031 -42.546875 L 28.960938 -42.546875 L 28.960938 -47.027344 L 1.378906 -47.027344 Z M 1.378906 -42.546875 "/></g></g></g><g fill="#1b7895" fill-opacity="1"><g transform="translate(811.968283, 682.365689)"><g><path d="M 20.753906 -24.066406 L 20.753906 -30.339844 C 19.789062 -30.753906 18.753906 -30.960938 17.722656 -30.960938 C 14.273438 -30.960938 11.792969 -29.03125 10.207031 -25.304688 L 10 -24.066406 L 10 -30.339844 L 5.171875 -30.339844 L 5.171875 0 L 10 0 L 10 -15.171875 C 10 -17.652344 10.550781 -19.859375 11.722656 -21.859375 C 12.273438 -22.894531 13.03125 -23.789062 13.929688 -24.480469 C 14.824219 -25.167969 15.929688 -25.582031 17.167969 -25.582031 C 18.410156 -25.582031 19.582031 -25.03125 20.753906 -24.066406 Z M 20.753906 -24.066406 "/></g></g></g><g fill="#1b7895" fill-opacity="1"><g transform="translate(847.205062, 682.365689)"><g><path d="M 29.304688 -15.171875 C 29.304688 -12.203125 28.273438 -9.585938 26.203125 -7.445312 C 24.132812 -5.242188 21.582031 -4.136719 18.617188 -4.136719 C 15.582031 -4.136719 13.03125 -5.242188 10.964844 -7.445312 C 8.894531 -9.585938 7.929688 -12.203125 7.929688 -15.171875 C 7.929688 -18.066406 8.894531 -20.6875 10.964844 -22.894531 C 13.03125 -25.101562 15.582031 -26.203125 18.617188 -26.203125 C 21.582031 -26.203125 24.132812 -25.101562 26.203125 -22.894531 C 28.273438 -20.6875 29.304688 -18.066406 29.304688 -15.171875 Z M 34.132812 0 L 34.132812 -30.339844 L 29.304688 -30.339844 L 29.304688 -25.101562 C 29.03125 -25.511719 28.683594 -25.859375 28.410156 -26.203125 C 25.511719 -29.375 21.996094 -31.03125 17.859375 -31.03125 C 13.652344 -31.03125 10.136719 -29.375 7.242188 -26.203125 C 4.480469 -23.03125 3.101562 -19.375 3.101562 -15.171875 C 3.101562 -10.894531 4.480469 -7.242188 7.242188 -4.136719 C 10.136719 -0.894531 13.652344 0.691406 17.859375 0.691406 C 21.996094 0.691406 25.511719 -0.894531 28.410156 -4.136719 C 28.683594 -4.414062 29.03125 -4.757812 29.304688 -5.171875 L 29.304688 0 Z M 34.132812 0 "/></g></g></g><g fill="#1b7895" fill-opacity="1"><g transform="translate(900.300711, 682.365689)"><g><path d="M 14.6875 2.894531 L 28.617188 -30.339844 L 23.375 -30.339844 L 14.6875 -7.792969 L 5.929688 -30.339844 L 0.691406 -30.339844 Z M 14.6875 2.894531 "/></g></g></g><g fill="#1b7895" fill-opacity="1"><g transform="translate(943.39815, 682.365689)"><g><path d="M 34.824219 -15.859375 C 34.824219 -19.996094 33.167969 -23.582031 29.996094 -26.6875 C 26.890625 -29.652344 23.167969 -31.167969 18.960938 -31.167969 C 14.550781 -31.167969 10.824219 -29.582031 7.722656 -26.480469 C 4.621094 -23.375 3.101562 -19.652344 3.101562 -15.308594 C 3.101562 -10.894531 4.621094 -7.171875 7.722656 -4.136719 C 9.171875 -2.6875 10.824219 -1.585938 12.757812 -0.757812 C 14.6875 0.0703125 16.964844 0.484375 19.652344 0.484375 C 22.339844 0.484375 24.960938 -0.34375 27.582031 -2 C 30.203125 -3.65625 32.132812 -6 33.441406 -8.894531 L 27.925781 -8.894531 C 26.824219 -7.445312 25.511719 -6.34375 23.925781 -5.515625 C 22.339844 -4.6875 20.6875 -4.34375 18.960938 -4.34375 C 16.34375 -4.34375 13.996094 -5.171875 11.929688 -6.894531 C 9.859375 -8.550781 8.550781 -10.6875 8.136719 -13.308594 L 34.824219 -13.308594 Z M 29.71875 -17.445312 L 8.207031 -17.445312 C 8.480469 -18.6875 8.964844 -19.859375 9.652344 -20.960938 C 11.859375 -24.546875 14.964844 -26.339844 18.960938 -26.339844 C 21.515625 -26.339844 23.789062 -25.511719 25.789062 -23.859375 C 27.859375 -22.132812 29.097656 -19.996094 29.71875 -17.445312 Z M 29.71875 -17.445312 "/></g></g></g><g fill="#1b7895" fill-opacity="1"><g transform="translate(994.769964, 682.365689)"><g><path d="M 10 0 L 10 -51.714844 L 5.171875 -51.714844 L 5.171875 0 Z M 10 0 "/></g></g></g><g fill="#1b7895" fill-opacity="1"><g transform="translate(1023.732005, 682.365689)"><g/></g></g><g fill="#1b7895" fill-opacity="1"><g transform="translate(1056.141717, 682.365689)"><g><path d="M 48.40625 0 L 53.300781 0 L 42.40625 -49.992188 L 27.03125 -9.859375 L 11.652344 -49.992188 L 0.691406 0 L 5.65625 0 L 12.894531 -33.375 L 27.03125 2.757812 L 41.097656 -33.375 Z M 48.40625 0 "/></g></g></g><g fill="#1b7895" fill-opacity="1"><g transform="translate(1123.92438, 682.365689)"><g><path d="M 29.304688 -15.171875 C 29.304688 -12.203125 28.273438 -9.585938 26.203125 -7.445312 C 24.132812 -5.242188 21.582031 -4.136719 18.617188 -4.136719 C 15.582031 -4.136719 13.03125 -5.242188 10.964844 -7.445312 C 8.894531 -9.585938 7.929688 -12.203125 7.929688 -15.171875 C 7.929688 -18.066406 8.894531 -20.6875 10.964844 -22.894531 C 13.03125 -25.101562 15.582031 -26.203125 18.617188 -26.203125 C 21.582031 -26.203125 24.132812 -25.101562 26.203125 -22.894531 C 28.273438 -20.6875 29.304688 -18.066406 29.304688 -15.171875 Z M 34.132812 0 L 34.132812 -30.339844 L 29.304688 -30.339844 L 29.304688 -25.101562 C 29.03125 -25.511719 28.683594 -25.859375 28.410156 -26.203125 C 25.511719 -29.375 21.996094 -31.03125 17.859375 -31.03125 C 13.652344 -31.03125 10.136719 -29.375 7.242188 -26.203125 C 4.480469 -23.03125 3.101562 -19.375 3.101562 -15.171875 C 3.101562 -10.894531 4.480469 -7.242188 7.242188 -4.136719 C 10.136719 -0.894531 13.652344 0.691406 17.859375 0.691406 C 21.996094 0.691406 25.511719 -0.894531 28.410156 -4.136719 C 28.683594 -4.414062 29.03125 -4.757812 29.304688 -5.171875 L 29.304688 0 Z M 34.132812 0 "/></g></g></g><g fill="#1b7895" fill-opacity="1"><g transform="translate(1177.020017, 682.365689)"><g><path d="M 10 0 L 10 -51.714844 L 5.171875 -51.714844 L 5.171875 0 Z M 10 0 "/></g></g></g><g fill="#1b7895" fill-opacity="1"><g transform="translate(1205.982081, 682.365689)"><g><path d="M 29.304688 -15.171875 C 29.304688 -12.203125 28.273438 -9.585938 26.203125 -7.445312 C 24.132812 -5.242188 21.582031 -4.136719 18.617188 -4.136719 C 15.582031 -4.136719 13.03125 -5.242188 10.964844 -7.445312 C 8.894531 -9.585938 7.929688 -12.203125 7.929688 -15.171875 C 7.929688 -18.066406 8.894531 -20.6875 10.964844 -22.894531 C 13.03125 -25.101562 15.582031 -26.203125 18.617188 -26.203125 C 21.582031 -26.203125 24.132812 -25.101562 26.203125 -22.894531 C 28.273438 -20.6875 29.304688 -18.066406 29.304688 -15.171875 Z M 34.132812 0 L 34.132812 -30.339844 L 29.304688 -30.339844 L 29.304688 -25.101562 C 29.03125 -25.511719 28.683594 -25.859375 28.410156 -26.203125 C 25.511719 -29.375 21.996094 -31.03125 17.859375 -31.03125 C 13.652344 -31.03125 10.136719 -29.375 7.242188 -26.203125 C 4.480469 -23.03125 3.101562 -19.375 3.101562 -15.171875 C 3.101562 -10.894531 4.480469 -7.242188 7.242188 -4.136719 C 10.136719 -0.894531 13.652344 0.691406 17.859375 0.691406 C 21.996094 0.691406 25.511719 -0.894531 28.410156 -4.136719 C 28.683594 -4.414062 29.03125 -4.757812 29.304688 -5.171875 L 29.304688 0 Z M 34.132812 0 "/></g></g></g><g fill="#1b7895" fill-opacity="1"><g transform="translate(1259.077718, 682.365689)"><g><path d="M 9.03125 17.238281 L 29.996094 -30.339844 L 24.617188 -30.339844 L 15.929688 -10 L 6.207031 -30.339844 L 0.691406 -30.339844 L 13.378906 -4.964844 L 3.171875 17.238281 Z M 9.03125 17.238281 "/></g></g></g><g fill="#1b7895" fill-opacity="1"><g transform="translate(1302.175158, 682.365689)"><g><path d="M 9.515625 -4.273438 C 8.34375 -5.101562 7.445312 -6.480469 6.964844 -8.480469 L 1.863281 -8.480469 C 2.894531 -2.207031 6.894531 0.894531 13.929688 0.894531 C 15.582031 0.894531 17.101562 0.757812 18.550781 0.34375 C 19.996094 -0.0703125 21.238281 -0.621094 22.410156 -1.378906 C 24.753906 -2.964844 25.925781 -5.378906 25.925781 -8.621094 C 25.925781 -11.929688 24.410156 -14.273438 21.238281 -15.789062 C 19.929688 -16.410156 18.480469 -16.894531 16.894531 -17.238281 C 15.378906 -17.582031 13.929688 -17.996094 12.617188 -18.410156 C 11.238281 -18.824219 10.136719 -19.375 9.238281 -19.996094 C 8.34375 -20.617188 7.859375 -21.582031 7.859375 -22.960938 C 7.859375 -24.339844 8.414062 -25.375 9.515625 -25.996094 C 10.617188 -26.6875 11.929688 -27.03125 13.378906 -27.03125 C 14.894531 -27.03125 16.203125 -26.6875 17.238281 -26.132812 C 18.273438 -25.582031 19.101562 -24.480469 19.582031 -22.824219 L 24.753906 -22.824219 C 24.132812 -25.859375 22.824219 -27.996094 20.894531 -29.167969 C 18.894531 -30.410156 16.480469 -31.03125 13.515625 -31.03125 C 10.617188 -31.03125 8.066406 -30.203125 5.929688 -28.683594 C 3.863281 -27.097656 2.757812 -24.824219 2.757812 -21.789062 C 2.757812 -20.339844 3.171875 -19.03125 3.929688 -17.929688 C 4.757812 -16.757812 5.929688 -15.859375 7.445312 -15.171875 C 8.828125 -14.550781 10.273438 -14.066406 11.792969 -13.652344 C 13.308594 -13.308594 14.757812 -12.894531 16.136719 -12.480469 C 19.238281 -11.445312 20.824219 -9.929688 20.824219 -8 C 20.824219 -4.6875 18.617188 -3.101562 14.203125 -3.101562 C 12.34375 -3.101562 10.757812 -3.449219 9.515625 -4.273438 Z M 9.515625 -4.273438 "/></g></g></g><g fill="#1b7895" fill-opacity="1"><g transform="translate(1343.686674, 682.365689)"><g><path d="M 10.066406 -40.820312 C 9.445312 -41.371094 8.6875 -41.71875 7.859375 -41.71875 C 7.035156 -41.71875 6.273438 -41.371094 5.722656 -40.820312 C 5.101562 -40.199219 4.828125 -39.441406 4.828125 -38.613281 C 4.828125 -37.789062 5.101562 -37.027344 5.722656 -36.476562 C 6.273438 -35.855469 7.035156 -35.582031 7.859375 -35.582031 C 8.6875 -35.582031 9.445312 -35.855469 10.066406 -36.476562 C 10.617188 -37.027344 10.964844 -37.789062 10.964844 -38.613281 C 10.964844 -39.441406 10.617188 -40.199219 10.066406 -40.820312 Z M 10.34375 0 L 10.34375 -30.339844 L 5.515625 -30.339844 L 5.515625 0 Z M 10.34375 0 "/></g></g></g><g fill="#1b7895" fill-opacity="1"><g transform="translate(1373.269283, 682.365689)"><g><path d="M 29.304688 -15.171875 C 29.304688 -12.203125 28.273438 -9.585938 26.203125 -7.445312 C 24.132812 -5.242188 21.582031 -4.136719 18.617188 -4.136719 C 15.582031 -4.136719 13.03125 -5.242188 10.964844 -7.445312 C 8.894531 -9.585938 7.929688 -12.203125 7.929688 -15.171875 C 7.929688 -18.066406 8.894531 -20.6875 10.964844 -22.894531 C 13.03125 -25.101562 15.582031 -26.203125 18.617188 -26.203125 C 21.582031 -26.203125 24.132812 -25.101562 26.203125 -22.894531 C 28.273438 -20.6875 29.304688 -18.066406 29.304688 -15.171875 Z M 34.132812 0 L 34.132812 -30.339844 L 29.304688 -30.339844 L 29.304688 -25.101562 C 29.03125 -25.511719 28.683594 -25.859375 28.410156 -26.203125 C 25.511719 -29.375 21.996094 -31.03125 17.859375 -31.03125 C 13.652344 -31.03125 10.136719 -29.375 7.242188 -26.203125 C 4.480469 -23.03125 3.101562 -19.375 3.101562 -15.171875 C 3.101562 -10.894531 4.480469 -7.242188 7.242188 -4.136719 C 10.136719 -0.894531 13.652344 0.691406 17.859375 0.691406 C 21.996094 0.691406 25.511719 -0.894531 28.410156 -4.136719 C 28.683594 -4.414062 29.03125 -4.757812 29.304688 -5.171875 L 29.304688 0 Z M 34.132812 0 "/></g></g></g></svg>